<svg width="42" height="41" viewBox="0 0 42 41" fill="none" xmlns="http://www.w3.org/2000/svg">
<rect x="1.10156" y="0.700195" width="39" height="39" rx="19.5" fill="white"/>
<g clip-path="url(#clip0_12_448)">
<path d="M24.429 12.9712L24.408 12.9523C24.1192 12.6926 23.6791 12.6991 23.3981 12.9671L16.6151 19.4379C16.4666 19.5795 16.4611 19.8147 16.6027 19.9632C16.6088 19.9696 16.6151 19.9757 16.6216 19.9816L23.565 26.2951C23.8546 26.5585 24.299 26.552 24.5808 26.2802L24.5943 26.2671C24.8607 26.0102 24.8683 25.586 24.6114 25.3197C24.6014 25.3093 24.591 25.2993 24.5804 25.2895L18.421 19.679L24.4429 13.9445C24.7081 13.6919 24.7184 13.2722 24.4658 13.007C24.454 12.9946 24.4417 12.9826 24.429 12.9712Z" fill="#067A46"/>
</g>
<rect x="1.10156" y="0.700195" width="39" height="39" rx="19.5" stroke="#067A46"/>
<defs>
<clipPath id="clip0_12_448">
<rect width="40" height="37.325" fill="white" transform="translate(1.60156 1.2002)"/>
</clipPath>
</defs>
</svg>
